<svg xmlns="http://www.w3.org/2000/svg" version="1.1" xmlns:xlink="http://www.w3.org/1999/xlink" xmlns:svgjs="http://svgjs.dev/svgjs" width="2000" height="1816" viewBox="0 0 2000 1816"><g transform="matrix(1,0,0,1,-1.5066953496875612,0.735222672064765)"><svg viewBox="0 0 272 247" data-background-color="#ffffff" preserveAspectRatio="xMidYMid meet" height="1816" width="2000" xmlns="http://www.w3.org/2000/svg" xmlns:xlink="http://www.w3.org/1999/xlink"><g id="tight-bounds" transform="matrix(1,0,0,1,0.20491056755750492,-0.09999999999999432)"><svg viewBox="0 0 271.590178864885 247.2" height="247.2" width="271.590178864885"><g><svg viewBox="0 0 397.4975999999999 361.8002945860742" height="247.2" width="271.590178864885"><g><rect width="397.4975999999999" height="8.07419045192597" x="0" y="201.83681169666957" fill="#046380" opacity="1" stroke-width="0" stroke="transparent" fill-opacity="1" class="rect-o-0" data-fill-palette-color="primary" rx="1%" id="o-0" data-palette-color="#046380"></rect></g><g transform="matrix(1,0,0,1,0.9887999999999693,231.04762636829705)"><svg viewBox="0 0 395.52 130.75266821777717" height="130.75266821777717" width="395.52"><g><svg viewBox="0 0 395.52 130.75266821777717" height="130.75266821777717" width="395.52"><g><svg viewBox="0 0 395.52 89.5331343283582" height="89.5331343283582" width="395.52"><g transform="matrix(1,0,0,1,0,0)"><svg width="395.52" viewBox="1.0499999523162842 -35.5 207.77999877929688 45.5" height="89.5331343283582" data-palette-color="#046380"><g class="undefined-text-0" data-fill-palette-color="primary" id="text-0"><path d="M28.75 0L23.4 0 20.7-9.65 8.95-9.65 6.25 0 1.05 0 11.5-34.9 18.25-34.9 28.75 0ZM19.45-14L16.2-25 15.1-30.1 14.45-30.1 13.35-25 10.25-14 19.45-14ZM33.3 10L33.3-26 38.45-26 38.45-21.75 39.05-21.75Q39.7-24.05 41.37-25.33 43.05-26.6 45.35-26.6L45.35-26.6Q49.95-26.6 52.22-23.08 54.5-19.55 54.5-13L54.5-13Q54.5-6.45 52.22-2.93 49.95 0.6 45.35 0.6L45.35 0.6Q43.05 0.6 41.37-0.68 39.7-1.95 39.05-4.25L39.05-4.25 38.45-4.25 38.45 10 33.3 10ZM43.5-3.8L43.5-3.8Q46.15-3.8 47.6-5.45 49.05-7.1 49.05-10.1L49.05-10.1 49.05-15.9Q49.05-18.9 47.6-20.55 46.15-22.2 43.5-22.2L43.5-22.2Q41.3-22.2 39.87-21.05 38.45-19.9 38.45-17.9L38.45-17.9 38.45-8.1Q38.45-6.1 39.87-4.95 41.3-3.8 43.5-3.8ZM60.05 10L60.05-26 65.2-26 65.2-21.75 65.8-21.75Q66.45-24.05 68.12-25.33 69.8-26.6 72.09-26.6L72.09-26.6Q76.7-26.6 78.97-23.08 81.25-19.55 81.25-13L81.25-13Q81.25-6.45 78.97-2.93 76.7 0.6 72.09 0.6L72.09 0.6Q69.8 0.6 68.12-0.68 66.45-1.95 65.8-4.25L65.8-4.25 65.2-4.25 65.2 10 60.05 10ZM70.25-3.8L70.25-3.8Q72.9-3.8 74.34-5.45 75.8-7.1 75.8-10.1L75.8-10.1 75.8-15.9Q75.8-18.9 74.34-20.55 72.9-22.2 70.25-22.2L70.25-22.2Q68.05-22.2 66.62-21.05 65.2-19.9 65.2-17.9L65.2-17.9 65.2-8.1Q65.2-6.1 66.62-4.95 68.05-3.8 70.25-3.8ZM108.24-30.25L98.99-30.25 98.99 0 93.69 0 93.69-30.25 84.44-30.25 84.44-34.9 108.24-34.9 108.24-30.25ZM121.99 0.6L121.99 0.6Q119.49 0.6 117.52-0.2 115.54-1 114.12-2.65 112.69-4.3 111.94-6.88 111.19-9.45 111.19-13L111.19-13Q111.19-16.55 111.94-19.13 112.69-21.7 114.12-23.35 115.54-25 117.52-25.8 119.49-26.6 121.99-26.6L121.99-26.6Q124.44-26.6 126.44-25.8 128.44-25 129.87-23.35 131.29-21.7 132.04-19.13 132.79-16.55 132.79-13L132.79-13Q132.79-9.45 132.04-6.88 131.29-4.3 129.87-2.65 128.44-1 126.44-0.2 124.44 0.6 121.99 0.6ZM121.99-3.7L121.99-3.7Q124.59-3.7 125.97-5.25 127.34-6.8 127.34-9.95L127.34-9.95 127.34-16.05Q127.34-19.2 125.97-20.75 124.59-22.3 121.99-22.3L121.99-22.3Q119.39-22.3 118.02-20.75 116.64-19.2 116.64-16.05L116.64-16.05 116.64-9.95Q116.64-6.8 118.02-5.25 119.39-3.7 121.99-3.7ZM158.59 0L158.59-5.15 157.99-5.15Q157.49-2.65 155.44-1.03 153.39 0.6 149.64 0.6L149.64 0.6Q146.94 0.6 144.66-0.4 142.39-1.4 140.69-3.58 138.99-5.75 138.04-9.18 137.09-12.6 137.09-17.4L137.09-17.4Q137.09-22.2 138.01-25.63 138.94-29.05 140.71-31.25 142.49-33.45 144.99-34.48 147.49-35.5 150.64-35.5L150.64-35.5Q155.29-35.5 158.19-33.5 161.09-31.5 162.69-27.8L162.69-27.8 158.34-25.25Q157.44-27.8 155.61-29.3 153.79-30.8 150.69-30.8L150.69-30.8Q146.94-30.8 144.86-28.4 142.79-26 142.79-21.7L142.79-21.7 142.79-13.2Q142.79-8.9 144.86-6.5 146.94-4.1 150.69-4.1L150.69-4.1Q152.24-4.1 153.59-4.55 154.94-5 155.96-5.85 156.99-6.7 157.56-7.98 158.14-9.25 158.14-10.85L158.14-10.85 158.14-13.9 151.69-13.9 151.69-18.45 163.29-18.45 163.29 0 158.59 0ZM182.69 0L168.89 0 168.89-4.25 173.14-4.25 173.14-30.65 168.89-30.65 168.89-34.9 182.69-34.9 182.69-30.65 178.44-30.65 178.44-4.25 182.69-4.25 182.69 0ZM194.38 0L189.08 0 189.08-34.9 208.83-34.9 208.83-30.25 194.38-30.25 194.38-20.05 207.18-20.05 207.18-15.45 194.38-15.45 194.38 0Z" fill="#046380" data-fill-palette-color="primary"></path></g></svg></g></svg></g><g transform="matrix(1,0,0,1,39.55199999999999,110.66975854805969)"><svg viewBox="0 0 316.416 20.082909669717466" height="20.082909669717466" width="316.416"><g transform="matrix(1,0,0,1,0,0)"><svg width="316.416" viewBox="2.4000000953674316 -37.849998474121094 753.8299560546875 47.849998474121094" height="20.082909669717466" data-palette-color="#046380"><path d="M20.9 0.4Q15.65 0.4 11.43-1.93 7.2-4.25 4.8-8.33 2.4-12.4 2.4-17.5L2.4-17.5Q2.4-22.6 4.8-26.68 7.2-30.75 11.45-33.08 15.7-35.4 20.95-35.4L20.95-35.4Q25.05-35.4 28.45-34.02 31.85-32.65 34.25-29.95L34.25-29.95 31-26.8Q27.05-30.95 21.15-30.95L21.15-30.95Q17.25-30.95 14.1-29.2 10.95-27.45 9.18-24.38 7.4-21.3 7.4-17.5L7.4-17.5Q7.4-13.7 9.18-10.63 10.95-7.55 14.1-5.8 17.25-4.05 21.15-4.05L21.15-4.05Q27-4.05 31-8.25L31-8.25 34.25-5.1Q31.85-2.4 28.43-1 25 0.4 20.9 0.4L20.9 0.4ZM45.3-22.05Q46.55-24.35 49-25.55 51.45-26.75 54.95-26.75L54.95-26.75 54.95-22.1Q54.55-22.15 53.85-22.15L53.85-22.15Q49.95-22.15 47.72-19.83 45.5-17.5 45.5-13.2L45.5-13.2 45.5 0 40.7 0 40.7-26.5 45.3-26.5 45.3-22.05ZM84.55-13.1Q84.55-12.55 84.45-11.65L84.45-11.65 62.95-11.65Q63.4-8.15 66.02-6.03 68.65-3.9 72.55-3.9L72.55-3.9Q77.3-3.9 80.2-7.1L80.2-7.1 82.84-4Q81.05-1.9 78.37-0.8 75.7 0.3 72.4 0.3L72.4 0.3Q68.2 0.3 64.95-1.43 61.7-3.15 59.92-6.25 58.15-9.35 58.15-13.25L58.15-13.25Q58.15-17.1 59.87-20.2 61.59-23.3 64.62-25.03 67.65-26.75 71.45-26.75L71.45-26.75Q75.25-26.75 78.22-25.03 81.2-23.3 82.87-20.2 84.55-17.1 84.55-13.1L84.55-13.1ZM71.45-22.7Q68-22.7 65.67-20.6 63.34-18.5 62.95-15.1L62.95-15.1 79.95-15.1Q79.55-18.45 77.22-20.58 74.9-22.7 71.45-22.7L71.45-22.7ZM100.09-26.75Q105.59-26.75 108.52-24.05 111.44-21.35 111.44-16L111.44-16 111.44 0 106.89 0 106.89-3.5Q105.69-1.65 103.47-0.68 101.24 0.3 98.19 0.3L98.19 0.3Q93.74 0.3 91.07-1.85 88.39-4 88.39-7.5L88.39-7.5Q88.39-11 90.94-13.13 93.49-15.25 99.04-15.25L99.04-15.25 106.64-15.25 106.64-16.2Q106.64-19.3 104.84-20.95 103.04-22.6 99.54-22.6L99.54-22.6Q97.19-22.6 94.94-21.83 92.69-21.05 91.14-19.75L91.14-19.75 89.14-23.35Q91.19-25 94.04-25.88 96.89-26.75 100.09-26.75L100.09-26.75ZM98.99-3.4Q101.74-3.4 103.74-4.63 105.74-5.85 106.64-8.1L106.64-8.1 106.64-11.8 99.24-11.8Q93.14-11.8 93.14-7.7L93.14-7.7Q93.14-5.7 94.69-4.55 96.24-3.4 98.99-3.4L98.99-3.4ZM133.74-5L135.24-1.55Q134.19-0.65 132.64-0.18 131.09 0.3 129.44 0.3L129.44 0.3Q125.44 0.3 123.24-1.85 121.04-4 121.04-8L121.04-8 121.04-22.55 116.54-22.55 116.54-26.5 121.04-26.5 121.04-32.3 125.84-32.3 125.84-26.5 133.44-26.5 133.44-22.55 125.84-22.55 125.84-8.2Q125.84-6.05 126.92-4.9 127.99-3.75 129.99-3.75L129.99-3.75Q132.19-3.75 133.74-5L133.74-5ZM164.09-13.1Q164.09-12.55 163.99-11.65L163.99-11.65 142.49-11.65Q142.94-8.15 145.56-6.03 148.19-3.9 152.09-3.9L152.09-3.9Q156.84-3.9 159.74-7.1L159.74-7.1 162.39-4Q160.59-1.9 157.91-0.8 155.24 0.3 151.94 0.3L151.94 0.3Q147.74 0.3 144.49-1.43 141.24-3.15 139.46-6.25 137.69-9.35 137.69-13.25L137.69-13.25Q137.69-17.1 139.41-20.2 141.14-23.3 144.16-25.03 147.19-26.75 150.99-26.75L150.99-26.75Q154.79-26.75 157.76-25.03 160.74-23.3 162.41-20.2 164.09-17.1 164.09-13.1L164.09-13.1ZM150.99-22.7Q147.54-22.7 145.21-20.6 142.89-18.5 142.49-15.1L142.49-15.1 159.49-15.1Q159.09-18.45 156.76-20.58 154.44-22.7 150.99-22.7L150.99-22.7ZM204.98-26.5L209.53-26.5 209.53-3.6Q209.53 3.35 206.08 6.68 202.63 10 195.78 10L195.78 10Q192.03 10 188.63 8.97 185.23 7.95 183.13 6.05L183.13 6.05 185.43 2.35Q187.28 3.95 190.01 4.88 192.73 5.8 195.63 5.8L195.63 5.8Q200.28 5.8 202.51 3.6 204.73 1.4 204.73-3.1L204.73-3.1 204.73-5.2Q203.03-3.15 200.56-2.13 198.08-1.1 195.18-1.1L195.18-1.1Q191.38-1.1 188.31-2.73 185.23-4.35 183.48-7.28 181.73-10.2 181.73-13.95L181.73-13.95Q181.73-17.7 183.48-20.63 185.23-23.55 188.31-25.15 191.38-26.75 195.18-26.75L195.18-26.75Q198.18-26.75 200.76-25.65 203.33-24.55 204.98-22.4L204.98-22.4 204.98-26.5ZM195.73-5.3Q198.33-5.3 200.41-6.4 202.48-7.5 203.66-9.47 204.83-11.45 204.83-13.95L204.83-13.95Q204.83-17.8 202.28-20.18 199.73-22.55 195.73-22.55L195.73-22.55Q191.68-22.55 189.13-20.18 186.58-17.8 186.58-13.95L186.58-13.95Q186.58-11.45 187.76-9.47 188.93-7.5 191.01-6.4 193.08-5.3 195.73-5.3L195.73-5.3ZM218.68 0L218.68-26.5 223.48-26.5 223.48 0 218.68 0ZM221.08-31.6Q219.68-31.6 218.75-32.5 217.83-33.4 217.83-34.7L217.83-34.7Q217.83-36 218.75-36.93 219.68-37.85 221.08-37.85L221.08-37.85Q222.48-37.85 223.41-36.98 224.33-36.1 224.33-34.8L224.33-34.8Q224.33-33.45 223.41-32.52 222.48-31.6 221.08-31.6L221.08-31.6ZM242.33-33.45Q238.03-33.45 238.03-28.8L238.03-28.8 238.03-26.5 245.73-26.5 245.73-22.55 238.13-22.55 238.13 0 233.33 0 233.33-22.55 228.83-22.55 228.83-26.5 233.33-26.5 233.33-28.85Q233.33-32.8 235.63-35.1 237.93-37.4 242.08-37.4L242.08-37.4Q243.68-37.4 245.08-37 246.48-36.6 247.48-35.85L247.48-35.85 246.03-32.2Q244.38-33.45 242.33-33.45L242.33-33.45ZM273.42-33.45Q269.12-33.45 269.12-28.8L269.12-28.8 269.12-26.5 276.82-26.5 276.82-22.55 269.22-22.55 269.22 0 264.42 0 264.42-22.55 259.92-22.55 259.92-26.5 264.42-26.5 264.42-28.85Q264.42-32.8 266.72-35.1 269.02-37.4 273.17-37.4L273.17-37.4Q274.77-37.4 276.17-37 277.57-36.6 278.57-35.85L278.57-35.85 277.12-32.2Q275.47-33.45 273.42-33.45L273.42-33.45ZM289.97-22.05Q291.22-24.35 293.67-25.55 296.12-26.75 299.62-26.75L299.62-26.75 299.62-22.1Q299.22-22.15 298.52-22.15L298.52-22.15Q294.62-22.15 292.39-19.83 290.17-17.5 290.17-13.2L290.17-13.2 290.17 0 285.37 0 285.37-26.5 289.97-26.5 289.97-22.05ZM316.62 0.3Q312.67 0.3 309.52-1.45 306.37-3.2 304.59-6.28 302.82-9.35 302.82-13.25L302.82-13.25Q302.82-17.15 304.59-20.23 306.37-23.3 309.52-25.03 312.67-26.75 316.62-26.75L316.62-26.75Q320.57-26.75 323.69-25.03 326.82-23.3 328.59-20.23 330.37-17.15 330.37-13.25L330.37-13.25Q330.37-9.35 328.59-6.28 326.82-3.2 323.69-1.45 320.57 0.3 316.62 0.3L316.62 0.3ZM316.62-3.9Q319.17-3.9 321.19-5.08 323.22-6.25 324.37-8.38 325.52-10.5 325.52-13.25L325.52-13.25Q325.52-16 324.37-18.13 323.22-20.25 321.19-21.4 319.17-22.55 316.62-22.55L316.62-22.55Q314.07-22.55 312.04-21.4 310.02-20.25 308.84-18.13 307.67-16 307.67-13.25L307.67-13.25Q307.67-10.5 308.84-8.38 310.02-6.25 312.04-5.08 314.07-3.9 316.62-3.9L316.62-3.9ZM370.16-26.75Q375.16-26.75 378.09-23.85 381.01-20.95 381.01-15.25L381.01-15.25 381.01 0 376.21 0 376.21-14.7Q376.21-18.55 374.44-20.5 372.66-22.45 369.36-22.45L369.36-22.45Q365.71-22.45 363.56-20.18 361.41-17.9 361.41-13.65L361.41-13.65 361.41 0 356.61 0 356.61-14.7Q356.61-18.55 354.84-20.5 353.06-22.45 349.76-22.45L349.76-22.45Q346.11-22.45 343.96-20.18 341.81-17.9 341.81-13.65L341.81-13.65 341.81 0 337.01 0 337.01-26.5 341.61-26.5 341.61-22.55Q343.06-24.6 345.41-25.68 347.76-26.75 350.76-26.75L350.76-26.75Q353.86-26.75 356.26-25.5 358.66-24.25 359.96-21.85L359.96-21.85Q361.46-24.15 364.14-25.45 366.81-26.75 370.16-26.75L370.16-26.75ZM422.06-26.5L426.76-26.5 413.91 2.65Q412.21 6.7 409.94 8.35 407.66 10 404.46 10L404.46 10Q402.51 10 400.69 9.38 398.86 8.75 397.66 7.55L397.66 7.55 399.71 3.95Q401.76 5.9 404.46 5.9L404.46 5.9Q406.21 5.9 407.38 4.98 408.56 4.05 409.51 1.8L409.51 1.8 410.36-0.05 398.66-26.5 403.66-26.5 412.91-5.3 422.06-26.5ZM441.86 0.3Q437.91 0.3 434.76-1.45 431.61-3.2 429.83-6.28 428.06-9.35 428.06-13.25L428.06-13.25Q428.06-17.15 429.83-20.23 431.61-23.3 434.76-25.03 437.91-26.75 441.86-26.75L441.86-26.75Q445.81-26.75 448.93-25.03 452.06-23.3 453.83-20.23 455.61-17.15 455.61-13.25L455.61-13.25Q455.61-9.35 453.83-6.28 452.06-3.2 448.93-1.45 445.81 0.3 441.86 0.3L441.86 0.3ZM441.86-3.9Q444.41-3.9 446.43-5.08 448.46-6.25 449.61-8.38 450.76-10.5 450.76-13.25L450.76-13.25Q450.76-16 449.61-18.13 448.46-20.25 446.43-21.4 444.41-22.55 441.86-22.55L441.86-22.55Q439.31-22.55 437.28-21.4 435.26-20.25 434.08-18.13 432.91-16 432.91-13.25L432.91-13.25Q432.91-10.5 434.08-8.38 435.26-6.25 437.28-5.08 439.31-3.9 441.86-3.9L441.86-3.9ZM482.15-26.5L486.95-26.5 486.95 0 482.4 0 482.4-4Q480.95-1.95 478.58-0.83 476.2 0.3 473.4 0.3L473.4 0.3Q468.1 0.3 465.06-2.63 462-5.55 462-11.25L462-11.25 462-26.5 466.81-26.5 466.81-11.8Q466.81-7.95 468.65-5.98 470.5-4 473.95-4L473.95-4Q477.75-4 479.95-6.3 482.15-8.6 482.15-12.8L482.15-12.8 482.15-26.5ZM500.7-22.05Q501.95-24.35 504.4-25.55 506.85-26.75 510.35-26.75L510.35-26.75 510.35-22.1Q509.95-22.15 509.25-22.15L509.25-22.15Q505.35-22.15 503.13-19.83 500.9-17.5 500.9-13.2L500.9-13.2 500.9 0 496.1 0 496.1-26.5 500.7-26.5 500.7-22.05ZM544.2-26.75Q549.25-26.75 552.22-23.83 555.2-20.9 555.2-15.25L555.2-15.25 555.2 0 550.4 0 550.4-14.7Q550.4-18.55 548.55-20.5 546.7-22.45 543.25-22.45L543.25-22.45Q539.35-22.45 537.1-20.18 534.85-17.9 534.85-13.65L534.85-13.65 534.85 0 530.05 0 530.05-26.5 534.65-26.5 534.65-22.5Q536.1-24.55 538.57-25.65 541.05-26.75 544.2-26.75L544.2-26.75ZM588.19-13.1Q588.19-12.55 588.09-11.65L588.09-11.65 566.59-11.65Q567.04-8.15 569.67-6.03 572.29-3.9 576.19-3.9L576.19-3.9Q580.94-3.9 583.84-7.1L583.84-7.1 586.49-4Q584.69-1.9 582.02-0.8 579.34 0.3 576.04 0.3L576.04 0.3Q571.84 0.3 568.59-1.43 565.34-3.15 563.57-6.25 561.79-9.35 561.79-13.25L561.79-13.25Q561.79-17.1 563.52-20.2 565.24-23.3 568.27-25.03 571.29-26.75 575.09-26.75L575.09-26.75Q578.89-26.75 581.87-25.03 584.84-23.3 586.52-20.2 588.19-17.1 588.19-13.1L588.19-13.1ZM575.09-22.7Q571.64-22.7 569.32-20.6 566.99-18.5 566.59-15.1L566.59-15.1 583.59-15.1Q583.19-18.45 580.87-20.58 578.54-22.7 575.09-22.7L575.09-22.7ZM630.14-26.5L634.44-26.5 624.54 0 619.94 0 612.29-20.1 604.54 0 599.94 0 590.09-26.5 594.64-26.5 602.34-5.4 610.34-26.5 614.39-26.5 622.24-5.3 630.14-26.5ZM662.39-26.75Q667.89-26.75 670.81-24.05 673.74-21.35 673.74-16L673.74-16 673.74 0 669.19 0 669.19-3.5Q667.99-1.65 665.76-0.68 663.54 0.3 660.49 0.3L660.49 0.3Q656.04 0.3 653.36-1.85 650.69-4 650.69-7.5L650.69-7.5Q650.69-11 653.24-13.13 655.79-15.25 661.34-15.25L661.34-15.25 668.94-15.25 668.94-16.2Q668.94-19.3 667.14-20.95 665.34-22.6 661.84-22.6L661.84-22.6Q659.49-22.6 657.24-21.83 654.99-21.05 653.44-19.75L653.44-19.75 651.44-23.35Q653.49-25 656.34-25.88 659.19-26.75 662.39-26.75L662.39-26.75ZM661.29-3.4Q664.04-3.4 666.04-4.63 668.04-5.85 668.94-8.1L668.94-8.1 668.94-11.8 661.54-11.8Q655.44-11.8 655.44-7.7L655.44-7.7Q655.44-5.7 656.99-4.55 658.54-3.4 661.29-3.4L661.29-3.4ZM696.68-26.75Q700.53-26.75 703.58-25.05 706.63-23.35 708.36-20.3 710.08-17.25 710.08-13.25L710.08-13.25Q710.08-9.25 708.36-6.18 706.63-3.1 703.58-1.4 700.53 0.3 696.68 0.3L696.68 0.3Q693.83 0.3 691.46-0.8 689.08-1.9 687.43-4L687.43-4 687.43 9.7 682.63 9.7 682.63-26.5 687.23-26.5 687.23-22.3Q688.83-24.5 691.28-25.63 693.73-26.75 696.68-26.75L696.68-26.75ZM696.28-3.9Q698.83-3.9 700.86-5.08 702.88-6.25 704.06-8.38 705.23-10.5 705.23-13.25L705.23-13.25Q705.23-16 704.06-18.13 702.88-20.25 700.86-21.4 698.83-22.55 696.28-22.55L696.28-22.55Q693.78-22.55 691.76-21.38 689.73-20.2 688.56-18.1 687.38-16 687.38-13.25L687.38-13.25Q687.38-10.5 688.53-8.38 689.68-6.25 691.73-5.08 693.78-3.9 696.28-3.9L696.28-3.9ZM730.78-26.75Q734.63-26.75 737.68-25.05 740.73-23.35 742.46-20.3 744.18-17.25 744.18-13.25L744.18-13.25Q744.18-9.25 742.46-6.18 740.73-3.1 737.68-1.4 734.63 0.3 730.78 0.3L730.78 0.3Q727.93 0.3 725.56-0.8 723.18-1.9 721.53-4L721.53-4 721.53 9.7 716.73 9.7 716.73-26.5 721.33-26.5 721.33-22.3Q722.93-24.5 725.38-25.63 727.83-26.75 730.78-26.75L730.78-26.75ZM730.38-3.9Q732.93-3.9 734.96-5.08 736.98-6.25 738.16-8.38 739.33-10.5 739.33-13.25L739.33-13.25Q739.33-16 738.16-18.13 736.98-20.25 734.96-21.4 732.93-22.55 730.38-22.55L730.38-22.55Q727.88-22.55 725.86-21.38 723.83-20.2 722.66-18.1 721.48-16 721.48-13.25L721.48-13.25Q721.48-10.5 722.63-8.38 723.78-6.25 725.83-5.08 727.88-3.9 730.38-3.9L730.38-3.9ZM751.08-11.05L750.18-35 755.83-35 754.88-11.05 751.08-11.05ZM753.03 0.3Q751.63 0.3 750.68-0.63 749.73-1.55 749.73-2.9L749.73-2.9Q749.73-4.25 750.68-5.18 751.63-6.1 753.03-6.1L753.03-6.1Q754.43-6.1 755.33-5.18 756.23-4.25 756.23-2.9L756.23-2.9Q756.23-1.55 755.3-0.63 754.38 0.3 753.03 0.3L753.03 0.3Z" opacity="1" transform="matrix(1,0,0,1,0,0)" fill="#046380" class="undefined-text-1" data-fill-palette-color="secondary" id="text-1"></path></svg></g></svg></g></svg></g></svg></g><g transform="matrix(1,0,0,1,125.0710485711578,0)"><svg viewBox="0 0 147.35550285768431 180.70018747696807" height="180.70018747696807" width="147.35550285768431"><g><svg xmlns="http://www.w3.org/2000/svg" viewBox="14.600000381469727 4.699999809265137 73.79999542236328 90.5" x="0" y="0" height="180.70018747696807" width="147.35550285768431" class="icon-icon-0" data-fill-palette-color="accent" id="icon-0"><path d="M75.3 59.4V6.7c0-1.1-0.9-2-2-2H16.6c-1.1 0-2 0.9-2 2v73.4c0 1.1 0.9 2 2 2h36c2.3 7.5 9.2 13.1 17.5 13.1 10.1 0 18.3-8.2 18.3-18.3 0-8.3-5.6-15.3-13.1-17.5zM51.9 78.1H18.6V8.7h52.7v49.9c-0.4 0-0.8-0.1-1.2-0.1-4.4 0-8.5 1.6-11.7 4.2H28.1c-1.1 0-2 0.9-2 2s0.9 2 2 2h26.7c-1.9 2.9-3 6.3-3 10.1 0 0.5 0 0.9 0.1 1.3z m18.2 13.1c-7.9 0-14.3-6.4-14.3-14.3s6.4-14.3 14.3-14.3S84.4 69 84.4 76.9 78 91.2 70.1 91.2z" fill="#046380" data-fill-palette-color="accent"></path><path d="M78.2 74.9h-6.1v-6.1c0-1.1-0.9-2-2-2s-2 0.9-2 2v6.1H62c-1.1 0-2 0.9-2 2s0.9 2 2 2h6.1V85c0 1.1 0.9 2 2 2s2-0.9 2-2v-6.1h6.1c1.1 0 2-0.9 2-2s-0.9-2-2-2zM28.1 19.8h33.6c1.1 0 2-0.9 2-2s-0.9-2-2-2H28.1c-1.1 0-2 0.9-2 2s0.9 2 2 2zM28.1 31.6h33.6c1.1 0 2-0.9 2-2s-0.9-2-2-2H28.1c-1.1 0-2 0.9-2 2s0.9 2 2 2zM28.1 43.3h33.6c1.1 0 2-0.9 2-2s-0.9-2-2-2H28.1c-1.1 0-2 0.9-2 2s0.9 2 2 2zM28.1 55.1h33.6c1.1 0 2-0.9 2-2s-0.9-2-2-2H28.1c-1.1 0-2 0.9-2 2s0.9 2 2 2z" fill="#046380" data-fill-palette-color="accent"></path></svg></g></svg></g><g></g></svg></g><defs></defs></svg><rect width="271.590178864885" height="247.2" fill="none" stroke="none" visibility="hidden"></rect></g></svg></g></svg>